<svg width="1024" height="1024" viewBox="0 0 1024 1024" fill="none" xmlns="http://www.w3.org/2000/svg">
<rect width="1024" height="1024" rx="200" fill="#280B18"/>
<path d="M512.581 142C322.996 142 162.263 326.914 210.723 508.354C222.517 552.554 234.949 593.115 249.408 629.395C226.52 654.579 236.41 703.209 258.187 726.684C271.543 741.07 301.383 765.807 326.419 775.874C346.671 772.939 405.915 769.635 402.248 831.694C409.116 834.459 416.306 836.855 423.718 839.025V814.486H432.648V841.443C444.65 844.47 457.203 846.817 470.287 848.384V814.486H479.188V849.249C491.312 850.383 503.744 851 516.512 851C516.619 851 516.734 851 516.841 851V814.472H525.757V850.83C538.461 850.56 550.921 849.795 562.909 848.355V814.472H571.846V847.086C584.3 845.264 596.259 842.776 607.645 839.557V814.486H616.561V836.827C621.681 835.154 626.665 833.388 631.499 831.403C621.538 753.853 700.69 766.842 711.933 769.061C737.821 760.461 770.655 733.384 784.855 718.098C807.506 693.722 817.403 642.022 790.835 617.867C789.94 617.051 788.901 616.484 787.963 615.69C797.831 587.259 806.547 556.12 814.646 522.201C858.179 339.542 702.158 142 512.581 142ZM439.902 607.161C407.326 630.529 371.935 675.558 328.503 649.431C285.056 623.305 284.053 527.412 309.547 489.36C331.439 456.654 456.938 464.567 473.101 492.012C489.271 519.45 472.471 583.792 439.902 607.161ZM555.712 722.373C551.716 734.277 526.867 718.616 515.739 710.873C504.624 718.616 479.761 734.284 475.758 722.373C470.573 706.952 502.985 610.819 506.887 603.056C508.048 600.744 509.788 598.766 511.642 597.327C512.573 595.81 513.905 595.207 515.452 595.356C515.56 595.335 515.638 595.37 515.746 595.356C515.846 595.37 515.932 595.335 516.039 595.356C517.586 595.207 518.918 595.817 519.856 597.334C521.718 598.759 523.451 600.737 524.59 603.056C528.471 610.812 560.904 706.96 555.712 722.373ZM710.257 641.781C668.665 670.701 630.324 628.09 596.259 606.948C562.172 585.806 541.103 522.683 555.412 494.231C569.691 465.793 694.388 449.621 718.428 480.796C746.393 517.096 751.821 612.833 710.257 641.781Z" fill="#FF514E"/>
</svg>
